<?xml version="1.0" encoding="UTF-8"?>
<svg id="Livello_1" data-name="Livello 1" xmlns="http://www.w3.org/2000/svg" viewBox="0 0 64 64">
  <defs>
    <style>
      .cls-1 {
        fill: #fff;
      }
    </style>
  </defs>
  <path class="cls-1" d="M35.8,58.07h12c5.51,0,10-4.49,10-10v-12c0-.56-.24-1.1-.66-1.48-.43-.39-.96-.56-1.54-.51-1.01.1-1.8,1.05-1.8,2.16v11.83c0,3.31-2.69,6-6,6h-11.83c-1.12,0-2.07.79-2.16,1.8-.05.58.13,1.13.51,1.55.38.42.92.66,1.48.66h0Z"/>
  <path class="cls-1" d="M7.8,62.07h11.83c1.12,0,2.07-.79,2.16-1.8.06-.58-.13-1.13-.51-1.55-.38-.42-.92-.66-1.48-.66h-11.17l14.59-14.59c.78-.78.78-2.05,0-2.83-.78-.78-2.05-.78-2.83,0l-14.58,14.59v-11c0-1.12-.79-2.07-1.8-2.16-.07,0-.14-.01-.21-.01-.5,0-.97.18-1.34.52-.42.38-.66.92-.66,1.48v12c0,3.31,2.69,6,6,6h0Z"/>
  <path class="cls-1" d="M15.8,6.07c-5.51,0-10,4.49-10,10v12c0,.56.24,1.1.66,1.48.42.38.97.56,1.55.51,1.01-.1,1.8-1.05,1.8-2.16v-11.83c0-3.31,2.69-6,6-6h11.83c1.12,0,2.07-.79,2.16-1.8.06-.58-.13-1.13-.51-1.55-.38-.42-.92-.66-1.48-.66h-12.01Z"/>
  <path class="cls-1" d="M59.61,22.06c.59.06,1.12-.12,1.55-.51.42-.38.66-.92.66-1.48v-12c0-3.31-2.69-6-6-6h-11.83c-1.12,0-2.07.79-2.16,1.8-.05.58.13,1.13.51,1.55.38.42.92.66,1.48.66h11.17l-14.59,14.59c-.78.78-.78,2.05,0,2.83.78.78,2.05.78,2.83,0l14.58-14.59v11c0,1.12.79,2.07,1.8,2.16h0Z"/>
</svg>